<svg width="100" height="90" viewBox="0 0 100 90" fill="none" xmlns="http://www.w3.org/2000/svg">
<g clip-path="url(#clip0_1148_1133)">
<path d="M45.5176 58.4737L76.283 0.0547791H16.5765L8.53271 15.2801H47.5078L16.9082 73.2852H73.5465L81.4244 58.4737H45.5176Z" fill="#025A95"/>
<path d="M99.9172 23.0583C100.083 22.479 99.6684 22.0653 99.3367 21.5688C98.1758 19.9967 97.0148 18.3417 95.7709 16.7695C95.1905 15.9421 95.0246 15.1974 95.688 14.3699C96.4343 13.3769 97.1807 12.384 97.8441 11.391C98.4246 10.5636 99.005 9.65337 99.5855 8.8259C99.7514 8.49492 99.9172 8.16393 99.5855 7.91569C99.5026 7.83295 99.3367 7.7502 99.2538 7.7502C99.088 7.7502 99.005 7.66745 98.8392 7.7502C98.0099 7.99844 97.2636 8.24668 96.5173 8.49492C95.1075 8.90865 93.6149 9.40513 92.2051 9.81886C91.8734 9.9016 91.4588 9.9016 91.0442 9.81886C90.7125 9.73611 90.3808 9.48787 90.132 9.15689C89.8003 8.74316 89.5515 8.41217 89.2198 7.99844C88.3905 6.83999 87.4784 5.68154 86.6491 4.52309C86.2345 4.02662 85.9028 3.19915 85.0735 3.44739C84.4101 3.69563 84.6589 4.52309 84.6589 5.18506C84.6589 7.08823 84.6589 9.07414 84.6589 10.9773C84.7418 11.391 84.6589 11.722 84.4101 12.053C84.1613 12.384 83.9126 12.6322 83.4979 12.715C82.1711 13.1287 80.9272 13.6252 79.6004 14.0389C78.6882 14.3699 77.7761 14.6181 76.8639 14.9491C76.5322 15.1146 76.2005 15.2801 76.2834 15.6938C76.3663 15.8593 76.4492 15.9421 76.5322 16.1076C76.6151 16.1903 76.781 16.2731 76.9468 16.3558C78.1078 16.7695 79.2687 17.1005 80.5126 17.5143C81.5906 17.8453 82.5858 18.259 83.5809 18.6727C83.9126 18.7555 84.1613 19.0037 84.3272 19.2519C84.493 19.5002 84.576 19.8312 84.576 20.1621C84.576 20.6586 84.576 21.1551 84.576 21.5688C84.576 23.2238 84.576 24.8787 84.576 26.5336C84.576 27.0301 84.4101 27.6921 85.1564 27.9403C85.654 28.1058 85.9857 27.6093 86.3174 27.1956C86.5662 26.9473 86.732 26.6164 86.8979 26.3681C87.9759 24.9614 88.971 23.472 90.0491 22.0653C90.6295 21.2378 91.0442 21.0724 92.2051 21.4861C94.1124 22.1481 96.1026 22.7273 98.0929 23.3893C98.9221 23.3065 99.5026 23.5547 99.9172 23.0583Z" fill="#E62A3E"/>
<path d="M2.72833 88.0968H7.7868V89.7518H0.074707V88.5933L5.05025 81.3944H0.074707V79.7395H7.62095V80.8979L2.72833 88.0968ZM17.2403 84.9525C17.2403 85.9454 17.0745 86.7729 16.7428 87.5176C16.4111 88.2623 15.9135 88.8415 15.2501 89.2553C14.5867 89.669 13.8404 89.8345 13.0111 89.8345C12.1819 89.8345 11.4355 89.669 10.7721 89.2553C10.1087 88.8415 9.61116 88.2623 9.27946 87.5176C8.94776 86.7729 8.69898 85.9454 8.69898 84.9525V84.456C8.69898 83.463 8.86483 82.5528 9.19653 81.8081C9.52824 81.0634 10.0258 80.4842 10.6892 80.0704C11.3526 79.6567 12.0989 79.4912 12.9282 79.4912C13.7574 79.4912 14.5038 79.6567 15.1672 80.0704C15.8306 80.4842 16.3281 81.0634 16.6598 81.8081C16.9916 82.5528 17.2403 83.463 17.2403 84.3732V84.9525ZM15.0843 84.5387C15.0843 83.463 14.9184 82.7183 14.5038 82.1391C14.0892 81.5599 13.5916 81.3116 12.8453 81.3116C12.1819 81.3116 11.6014 81.5599 11.2697 82.1391C10.855 82.7183 10.6892 83.463 10.6892 84.5387V85.0352C10.6892 86.0282 10.855 86.8556 11.2697 87.4349C11.6843 88.0141 12.1819 88.2623 12.9282 88.2623C13.5916 88.2623 14.1721 88.0141 14.5038 87.4349C14.9184 86.8556 15.0843 86.1109 15.0843 85.0352V84.5387ZM18.733 89.7518V79.7395H21.8012C22.7134 79.7395 23.4598 79.9049 24.2061 80.3187C24.8695 80.7324 25.45 81.3116 25.8646 82.0563C26.2792 82.8011 26.4451 83.6285 26.4451 84.5387V85.0352C26.4451 85.9454 26.2792 86.7729 25.8646 87.5176C25.45 88.2623 24.9524 88.8415 24.2061 89.1725C23.5427 89.5863 22.7134 89.7518 21.8012 89.7518H18.733ZM20.8061 81.3944V88.0968H21.8012C22.6305 88.0968 23.211 87.8486 23.6256 87.2694C24.0402 86.7729 24.289 85.9454 24.289 85.0352V84.5387C24.289 83.5458 24.0402 82.7183 23.6256 82.2218C23.211 81.7254 22.5476 81.3944 21.8012 81.3944H20.8061ZM30.1767 89.7518H28.1036V79.7395H30.1767V89.7518ZM37.8888 87.6831H34.2401L33.5767 89.7518H31.3377L35.0694 79.6567H36.9766L40.7912 89.7518H38.5522L37.8888 87.6831ZM34.8206 86.0282H37.3083L36.0645 82.2218L34.8206 86.0282ZM49.4984 86.4419C49.4155 87.5176 49.0009 88.3451 48.2545 89.007C47.5082 89.669 46.596 89.9172 45.4351 89.9172C44.1083 89.9172 43.1131 89.5035 42.3668 88.5933C41.6205 87.6831 41.2888 86.5246 41.2888 85.0352V84.456C41.2888 83.463 41.4546 82.6356 41.7863 81.8909C42.118 81.1461 42.6156 80.5669 43.279 80.2359C43.9424 79.8222 44.6887 79.6567 45.518 79.6567C46.679 79.6567 47.5911 79.9877 48.3375 80.5669C49.0838 81.2289 49.4984 82.0563 49.5814 83.2148H47.5082C47.4253 82.5528 47.2594 82.0563 46.9277 81.8081C46.596 81.4771 46.1814 81.3944 45.518 81.3944C44.8546 81.3944 44.2741 81.6426 43.9424 82.1391C43.6107 82.6356 43.4449 83.3803 43.4449 84.456V85.2007C43.4449 86.2764 43.6107 87.1039 43.9424 87.6004C44.2741 88.0968 44.7717 88.3451 45.518 88.3451C46.1814 88.3451 46.679 88.1796 46.9277 87.9313C47.2594 87.6003 47.4253 87.1866 47.5082 86.6074H49.4984V86.4419Z" fill="#025A95"/>
<path d="M62.3517 88.5106C61.9371 88.9243 61.4396 89.338 60.7761 89.5863C60.1127 89.8345 59.3664 89.9172 58.5371 89.9172C57.625 89.9172 56.8786 89.7518 56.2152 89.338C55.5518 88.9243 55.0543 88.4278 54.7226 87.6831C54.3909 86.9384 54.225 86.1109 54.1421 85.118V84.456C54.1421 83.463 54.3079 82.5528 54.6396 81.8909C54.9713 81.1461 55.4689 80.5669 56.1323 80.2359C56.7957 79.8222 57.542 79.6567 58.3713 79.6567C59.5323 79.6567 60.5274 79.9049 61.1908 80.4842C61.8542 81.0634 62.2688 81.8909 62.3517 82.9666H60.3615C60.2786 82.3873 60.0298 81.9736 59.781 81.7254C59.4493 81.4771 59.0347 81.3116 58.4542 81.3116C57.7079 81.3116 57.2103 81.5599 56.8786 82.1391C56.5469 82.6356 56.2982 83.463 56.2982 84.5387V85.2007C56.2982 86.2764 56.464 87.0211 56.8786 87.6004C57.2933 88.1796 57.8737 88.4278 58.6201 88.4278C59.3664 88.4278 59.9469 88.2623 60.2786 87.9313V86.1937H58.3713V84.456H62.3517V88.5106ZM67.8248 86.1109H66.1663V89.8345H64.0932V79.7395H67.8248C68.9858 79.7395 69.898 79.9877 70.5614 80.5669C71.2248 81.0634 71.5565 81.8081 71.5565 82.8011C71.5565 83.463 71.3906 84.0423 71.1419 84.5387C70.8102 85.0352 70.3955 85.3662 69.815 85.6144L71.9711 89.7518V89.8345H69.7321L67.8248 86.1109ZM66.1663 84.456H67.8248C68.3224 84.456 68.737 84.2905 69.0687 84.0423C69.3175 83.794 69.4833 83.3803 69.4833 82.9666C69.4833 82.4701 69.3175 82.1391 69.0687 81.8081C68.8199 81.5599 68.4053 81.3944 67.8248 81.3944H66.1663V84.456ZM81.4246 84.9525C81.4246 85.9454 81.2588 86.7729 80.9271 87.5176C80.5954 88.2623 80.0978 88.8415 79.4344 89.2553C78.771 89.669 78.0247 89.8345 77.1954 89.8345C76.3662 89.8345 75.6198 89.669 74.9564 89.2553C74.293 88.8415 73.7955 88.2623 73.4638 87.5176C73.1321 86.7729 72.8833 85.9454 72.8833 84.9525V84.456C72.8833 83.463 73.0491 82.5528 73.3808 81.8081C73.7126 81.0634 74.2101 80.4842 74.8735 80.0704C75.5369 79.6567 76.2832 79.4912 77.1125 79.4912C77.9418 79.4912 78.6881 79.6567 79.3515 80.0704C80.0149 80.4842 80.5125 81.0634 80.8442 81.8081C81.1759 82.5528 81.4246 83.463 81.4246 84.3732V84.9525ZM79.3515 84.5387C79.3515 83.463 79.1856 82.7183 78.771 82.1391C78.3564 81.5599 77.8588 81.3116 77.1125 81.3116C76.4491 81.3116 75.8686 81.5599 75.5369 82.1391C75.1223 82.7183 74.9564 83.463 74.9564 84.5387V85.0352C74.9564 86.0282 75.1223 86.8556 75.5369 87.4349C75.9515 88.0141 76.4491 88.2623 77.1954 88.2623C77.8588 88.2623 78.4393 88.0141 78.771 87.4349C79.1856 86.8556 79.3515 86.1109 79.3515 85.0352V84.5387ZM90.5465 79.7395V86.3592C90.5465 87.4349 90.2148 88.3451 89.4684 89.007C88.805 89.669 87.8099 90 86.649 90C85.488 90 84.5758 89.669 83.8295 89.0898C83.1661 88.4278 82.7515 87.6003 82.7515 86.5246V79.8222H84.8246V86.4419C84.8246 87.1039 84.9904 87.6003 85.3222 87.8486C85.6539 88.1796 86.0685 88.2623 86.649 88.2623C87.8099 88.2623 88.3904 87.6831 88.3904 86.4419V79.7395H90.5465ZM94.3611 86.1937V89.7518H92.2879V79.7395H96.1854C96.9317 79.7395 97.5952 79.9049 98.1756 80.1532C98.7561 80.4014 99.1707 80.8151 99.5024 81.3116C99.8341 81.8081 100 82.3873 100 83.0493C100 84.0423 99.6683 84.787 99.0049 85.3662C98.3415 85.9454 97.4293 86.1937 96.1854 86.1937H94.3611ZM94.3611 84.5387H96.1854C96.7659 84.5387 97.1805 84.3732 97.4293 84.125C97.761 83.8768 97.8439 83.463 97.8439 83.0493C97.8439 82.5528 97.6781 82.1391 97.4293 81.8909C97.0976 81.5599 96.7659 81.3944 96.1854 81.3944H94.2781V84.5387H94.3611Z" fill="#E62A3E"/>
<path d="M45.5179 7.33645C51.9032 5.84702 58.786 5.43329 67.8249 8.57765C68.82 8.90863 69.1517 8.99138 69.2347 8.57765C69.4005 7.91568 63.264 4.35759 59.7811 2.9509C53.3958 0.468511 46.6789 -0.358952 39.6302 0.137526C32.4986 0.551257 16.4939 4.85406 8.86475 15.1974H29.4303C32.1669 12.384 40.2107 8.57765 45.5179 7.33645Z" fill="#E62A3E"/>
<path d="M60.7761 29.5125L54.8054 40.8487H73.5467C73.5467 40.8487 79.3515 44.9033 73.215 51.192C68.9857 55.6603 63.098 57.1497 56.9615 58.3909C50.2445 59.7149 43.7763 59.4666 37.8057 57.5634C33.9082 56.3223 30.5911 54.5846 27.8546 52.4332L20.5571 66.4173C27.0253 69.2307 34.4886 70.4719 42.2007 69.8099C44.8544 69.5617 50.1616 68.5687 52.5665 67.7412C58.62 65.7553 66.2492 61.287 69.8979 57.9772C75.5369 52.8469 83.8294 43.0828 85.2392 29.5125H60.7761Z" fill="#E62A3E"/>
<path d="M19.2304 34.7255C19.2304 30.4227 20.6401 26.8646 23.2937 22.0653H4.05497C3.05986 23.8857 -1.83276 32.3258 0.737937 43.1656C3.88911 56.405 12.0988 61.3698 14.6695 63.1075L23.045 47.1374C21.4694 44.5723 19.2304 41.3452 19.2304 34.7255Z" fill="#E62A3E"/>
</g>
<defs>
<clipPath id="clip0_1148_1133">
<rect width="100" height="90" fill="white"/>
</clipPath>
</defs>
</svg>
