<svg width="64" height="71" viewBox="0 0 64 71" fill="none" xmlns="http://www.w3.org/2000/svg">
<path d="M64 0H0V71H64V0Z" fill="#EFEAE5"/>
<path d="M9.13619 50.6145C9.13619 50.931 9.53043 51.0553 10.9768 51.0553C12.5679 51.0553 12.7688 50.9493 12.7688 50.7518C12.7688 50.5413 12.66 50.4353 10.7464 50.3738C8.16595 50.2875 7.47987 49.852 7.47987 48.8907C7.47987 47.8666 8.39123 47.333 10.8565 47.333C13.4805 47.333 14.3061 47.6678 14.3061 48.7481C14.3061 48.841 14.3061 48.9339 14.2997 49.0398C14.118 49.028 13.7954 49.0215 13.4856 49.0215C13.1644 49.0215 12.8418 49.028 12.66 49.0398V48.9221C12.66 48.6056 12.4412 48.4996 10.8322 48.4996C9.34995 48.4996 9.13235 48.5925 9.13235 48.7795C9.13235 48.9653 9.24755 49.0463 11.2828 49.1523C13.6943 49.2765 14.4341 49.6362 14.4341 50.6786C14.4341 51.7641 13.5906 52.286 10.9973 52.286C8.34899 52.286 7.44531 51.8334 7.44531 50.8892C7.44531 50.778 7.45171 50.659 7.46963 50.536C7.68211 50.5609 8.00339 50.5792 8.30803 50.5792C8.61779 50.5792 8.90963 50.5726 9.14003 50.5609V50.6145H9.13619Z" fill="#142034"/>
<path d="M22.3969 52.1355C22.4213 51.4711 22.4392 50.8264 22.4456 50.0573C22.4456 49.7408 22.4699 49.3995 22.4878 49.0712L22.4456 49.0594C22.2933 49.3694 22.1243 49.6924 21.9169 49.9658L20.3131 52.1382H19.4811L17.684 49.6937C17.483 49.4204 17.3077 49.0986 17.1553 48.8004L17.1131 48.8122C17.131 49.1353 17.1553 49.457 17.1617 49.8114C17.1681 50.6799 17.1861 51.4058 17.2219 52.1382H15.5938C15.6296 51.4685 15.6424 50.791 15.6424 49.8049C15.6424 48.7874 15.6309 48.0916 15.6117 47.4834H18.0526C18.3867 47.9856 18.8846 48.7429 19.5105 49.6676C19.6744 49.903 19.851 50.1698 20.0213 50.4431H20.0571C20.2209 50.1633 20.3784 49.8964 20.5307 49.6676C21.1131 48.7808 21.6597 47.9739 21.9886 47.4834H24.1441C24.1262 48.0916 24.1083 48.7861 24.1083 49.8049C24.1083 50.791 24.1147 51.4685 24.1569 52.1382H22.3969V52.1355Z" fill="#142034"/>
<path d="M31.1763 52.1349C31.1213 51.9989 30.9754 51.6942 30.7757 51.3162C30.1446 51.3096 29.5059 51.3096 29.0208 51.3096C28.5779 51.3096 27.9277 51.3096 27.3145 51.3162C27.1085 51.6693 26.9446 51.9675 26.8653 52.1349H24.8672C25.735 50.9068 27.4182 48.3002 27.8125 47.4814H30.3392C30.7526 48.3002 32.4346 50.8754 33.3395 52.1349H31.1763ZM28.6445 49.0875C28.4384 49.4224 28.2016 49.8134 27.9699 50.2045C28.3526 50.211 28.7354 50.211 29.0272 50.211C29.3434 50.211 29.7555 50.211 30.169 50.2045C29.9437 49.8069 29.7069 49.4106 29.4944 49.0745C29.3062 48.7828 29.1731 48.5408 29.0694 48.3486L28.6445 49.0875Z" fill="#142034"/>
<path d="M39.217 50.2306C40.2794 50.3366 40.7658 50.5105 40.9604 51.2168C41.0692 51.6196 41.1665 51.9557 41.2458 52.1349H39.7341C39.4615 52.1349 39.4129 52.0734 39.2605 51.4653C39.1274 50.9186 38.9265 50.8192 37.8218 50.8192H35.6484C35.6599 51.3463 35.6842 51.8001 35.7213 52.1349H33.9844C33.9959 51.4587 34.0087 50.8074 34.0087 49.8082C34.0087 48.822 34.0023 48.1511 33.9844 47.4814H38.5028C40.1489 47.4814 40.9194 47.9222 40.9194 48.8652C40.9194 49.6656 40.4087 50.075 39.2196 50.2058V50.2306H39.217ZM37.9716 49.6604C38.9495 49.6604 39.3015 49.493 39.3015 49.1516C39.3015 48.7985 38.9559 48.6795 37.9895 48.6795C37.5274 48.6795 36.2346 48.686 35.6215 48.7043C35.6215 49.0208 35.6215 49.3373 35.6279 49.6408C36.0657 49.6604 36.9937 49.6604 37.9716 49.6604Z" fill="#142034"/>
<path d="M48.0588 47.4814C48.0472 47.6619 48.0472 47.934 48.0472 48.1759C48.0472 48.4114 48.0472 48.703 48.0588 48.9018C47.2152 48.877 46.3768 48.877 45.6472 48.877C45.6472 50.4347 45.6536 51.7805 45.6716 52.1415C45.4476 52.1231 45.07 52.1231 44.8152 52.1231C44.5605 52.1231 44.2021 52.1231 43.9589 52.1415C43.9768 51.7818 43.9896 50.4412 43.9896 48.877C43.2613 48.877 42.4229 48.877 41.5781 48.9018C41.5845 48.703 41.5845 48.4179 41.5845 48.1759C41.5845 47.934 41.5845 47.6672 41.5781 47.4814H48.0588Z" fill="#142034"/>
<path d="M11.2947 59.7917C8.46461 59.7917 7.30493 58.7611 7.30493 57.2414C7.30493 55.6588 8.58621 54.7158 11.2947 54.7158C14.0032 54.7158 15.2845 55.6588 15.2845 57.2414C15.2845 58.7624 14.1248 59.7917 11.2947 59.7917ZM13.5782 57.2479C13.5782 56.4841 12.9894 56.0629 11.2947 56.0629C9.59997 56.0629 9.01117 56.4854 9.01117 57.2479C9.01117 57.9986 9.59357 58.4459 11.2947 58.4459C13.0022 58.4459 13.5782 57.9986 13.5782 57.2479Z" fill="#142034"/>
<path d="M21.6076 57.675C22.67 57.7809 23.1564 57.9548 23.351 58.6611C23.4598 59.0639 23.5571 59.4001 23.6364 59.5792H22.1248C21.8521 59.5792 21.8035 59.5178 21.6512 58.9096C21.518 58.3629 21.3171 58.2635 20.2124 58.2635H18.039C18.0505 58.7906 18.0748 59.2444 18.112 59.5792H16.375C16.3865 58.9031 16.3993 58.2517 16.3993 57.2525C16.3993 56.2664 16.3929 55.5954 16.375 54.9258H20.8934C22.5395 54.9258 23.31 55.3665 23.31 56.3095C23.31 57.1099 22.7993 57.5193 21.6102 57.6501V57.675H21.6076ZM20.3622 57.1047C21.3401 57.1047 21.6921 56.9373 21.6921 56.596C21.6921 56.2428 21.3465 56.1238 20.3801 56.1238C19.918 56.1238 18.6252 56.1303 18.0121 56.1487C18.0121 56.4652 18.0121 56.7817 18.0185 57.0851C18.4563 57.1047 19.3856 57.1047 20.3622 57.1047Z" fill="#142034"/>
<path d="M30.114 59.5802C30.059 59.4442 29.9131 59.1395 29.7134 58.7615C29.0824 58.7549 28.4436 58.7549 27.9585 58.7549C27.5156 58.7549 26.8654 58.7549 26.2523 58.7615C26.0462 59.1146 25.8824 59.4128 25.803 59.5802H23.8049C24.6728 58.3521 26.356 55.7455 26.7502 54.9268H29.2769C29.6904 55.7455 31.3723 58.3207 32.2772 59.5802H30.114ZM27.5822 56.5328C27.3761 56.8677 27.1393 57.2587 26.9077 57.6498C27.2904 57.6563 27.6731 57.6563 27.9649 57.6563C28.2811 57.6563 28.6932 57.6563 29.1067 57.6498C28.8814 57.2522 28.6446 56.8559 28.4321 56.5198C28.244 56.2281 28.1108 55.9861 28.0072 55.7939L27.5822 56.5328Z" fill="#142034"/>
<path d="M40.228 54.9268C40.2101 55.4983 40.2037 56.2608 40.2037 57.2483C40.2037 58.2723 40.2037 58.9603 40.2152 59.5815H38.4846C38.1262 59.1656 36.2382 57.8499 35.1938 57.1057C34.939 56.92 34.6779 56.733 34.4654 56.5355C34.4898 56.9082 34.4962 57.2797 34.5077 57.6589C34.5141 58.6202 34.5192 59.2964 34.5384 59.5828H32.9768C32.9768 58.9564 32.9947 58.2488 32.9947 57.2561C32.9947 56.27 32.9947 55.5624 32.9768 54.9294H34.957C35.181 55.2276 37.2648 56.7408 38.1941 57.3934C38.413 57.5425 38.6318 57.6602 38.7957 57.8211C38.7714 57.4798 38.7598 57.1515 38.7598 56.8964C38.7598 56.0345 38.7419 55.259 38.7176 54.9294H40.228V54.9268Z" fill="#142034"/>
<path d="M45.3729 59.73C42.8168 59.73 41.3281 58.9793 41.3281 57.2228C41.3281 55.3734 42.8769 54.7783 45.282 54.7783C47.5771 54.7783 48.9979 55.1628 48.9979 56.5531C48.9979 56.5963 48.9979 56.646 48.9915 56.6891C48.8097 56.6761 48.4872 56.6708 48.1774 56.6708C47.8433 56.6708 47.5272 56.6774 47.339 56.6891C47.339 56.6643 47.3454 56.6394 47.3454 56.6146C47.3454 56.1804 46.7681 56.043 45.2744 56.043C43.6948 56.043 43.0395 56.3726 43.0395 57.2528C43.0395 58.0533 43.6526 58.4809 45.3716 58.4809C46.6529 58.4809 47.2174 58.2821 47.3812 57.861C46.5377 57.861 45.4011 57.8675 44.6484 57.8859C44.6548 57.793 44.6548 57.5942 44.6548 57.5013C44.6548 57.3339 44.6548 57.1848 44.6484 57.0671C45.6328 57.0854 46.6401 57.0802 47.3748 57.0802C47.8241 57.0802 48.4014 57.0867 49.003 57.0671C49.1144 58.7425 48.7009 59.73 45.3729 59.73Z" fill="#142034"/>
<path d="M56.6692 54.9268C56.6628 55.0628 56.6577 55.2799 56.6577 55.4735C56.6577 55.6723 56.6577 55.8959 56.6692 56.0254C55.4058 56.0188 53.1223 56.0136 51.987 56.0136V56.7277C53.299 56.7277 55.5876 56.7277 56.6026 56.7094C56.5962 56.9514 56.5911 57.4484 56.5962 57.7086C55.6004 57.6969 53.2862 57.6838 51.987 57.6838V58.4097C53.1223 58.4097 55.4852 58.4031 56.6692 58.3979C56.6577 58.547 56.6577 58.7824 56.6577 58.9995C56.6577 59.1983 56.6577 59.4272 56.6692 59.5828H50.25C50.2743 58.9498 50.2743 58.2488 50.2743 57.2561C50.2743 56.27 50.2743 55.5559 50.25 54.9294H56.6692V54.9268Z" fill="#142034"/>
<path d="M15.085 35.0125C14.733 35.0125 14.4015 34.9719 14.0917 34.8882C13.0319 34.6005 12.2946 33.8144 11.9554 32.6125C9.26612 30.4989 7.66868 27.5143 7.45492 24.2015C7.22068 20.5838 8.62356 17.0329 11.405 14.2027L11.5893 14.0156L11.6584 14.2707C12.7272 18.2362 18.2696 25.1039 24.0117 29.5808L24.15 29.688L24.0271 29.8136C20.7874 33.1121 17.4786 35.0125 15.085 35.0125ZM11.4396 14.6068C8.84116 17.3429 7.53428 20.7329 7.757 24.1805C7.96564 27.4202 9.5362 30.3381 12.1794 32.398L12.2204 32.4294L12.2332 32.4791C12.5391 33.613 13.1906 34.3232 14.1685 34.5874C14.4578 34.6659 14.7701 34.7038 15.1004 34.7038C17.3736 34.7038 20.5455 32.8819 23.6892 29.7168C18.0712 25.3001 12.6722 18.6272 11.4396 14.6068Z" fill="#142034"/>
<path d="M14.3324 34.9265C11.3999 32.6403 8.56603 29.1195 8.01562 27.0765L8.30746 26.9941C8.84378 28.9821 11.6291 32.4297 14.5155 34.6806L14.3324 34.9265Z" fill="#142034"/>
<path d="M18.5799 33.9155C13.5789 30.0167 8.74818 24.0187 7.8125 20.5424L8.10434 20.46C9.02594 23.8801 13.808 29.8061 18.7642 33.6696L18.5799 33.9155Z" fill="#142034"/>
<path d="M12.0263 32.6646C10.4698 32.0094 9.48424 30.8284 9.17576 29.2458C8.61 26.3436 10.3444 22.5023 13.8145 18.9697L14.0282 19.1881C10.6298 22.6475 8.92744 26.3841 9.47272 29.1843C9.75944 30.6596 10.6836 31.7635 12.1415 32.3769L12.0263 32.6646Z" fill="#142034"/>
<path d="M11.5609 32.9019C11.479 32.9019 11.4111 32.8744 11.3612 32.809C11.2575 32.6704 11.0835 32.4402 13.0419 30.1318C14.295 28.6539 16.1075 26.7038 18.2809 24.4922L18.4947 24.7106C13.655 29.6374 11.7785 32.0531 11.6249 32.5828C11.6889 32.5645 11.8092 32.5148 12.023 32.3879L12.1753 32.6547C11.9513 32.7868 11.7286 32.9019 11.5609 32.9019Z" fill="#142034"/>
<path d="M20.8727 35.5572C19.3111 35.5572 17.7636 35.3309 16.2967 34.8718C15.4865 35.051 14.7467 35.0615 14.1041 34.8875C13.0289 34.5959 12.2865 33.7915 11.955 32.5621L11.8359 32.12L12.1931 32.3986C13.4347 33.3665 14.835 34.0845 16.3198 34.5566C18.4766 34.0544 21.1659 32.3031 23.827 29.5945L23.9204 29.499L24.0254 29.5814C26.4382 31.4622 28.1687 32.4025 29.3899 32.8446C30.4484 32.1933 31.4391 31.4125 32.33 30.5048L32.5143 30.3178L32.5835 30.5728C33.0276 32.222 32.5937 32.9335 32.1508 33.2383C31.5684 33.6398 30.6289 33.6097 29.4219 33.1833C26.8145 34.7528 23.818 35.5572 20.8727 35.5572ZM16.8702 34.7214C20.8343 35.8096 25.331 35.2106 29.0519 33.046C27.635 32.4784 25.8903 31.4164 23.9447 29.9097C21.4756 32.4012 18.9719 34.0793 16.8702 34.7214ZM12.3953 32.9348C12.7409 33.8059 13.3399 34.3618 14.1809 34.5893C14.6353 34.7123 15.1422 34.7371 15.6939 34.6691C14.5227 34.2454 13.4116 33.6686 12.3953 32.9348ZM29.7649 32.9702C31.1895 33.4044 31.8091 33.1009 31.9793 32.9832C32.5655 32.5791 32.5259 31.6806 32.3531 30.9129C31.5569 31.6963 30.6878 32.3829 29.7649 32.9702Z" fill="#142034"/>
<path d="M18.0636 36.8043C17.2341 36.8043 15.9132 36.1452 14.3516 34.9275L14.5346 34.6816C16.7567 36.4146 18.0392 36.6879 18.4629 36.3963C18.756 36.1936 18.6933 35.6913 18.5896 35.3055L18.8815 35.2231C19.1183 36.0994 18.8764 36.4839 18.6332 36.6526C18.4847 36.7546 18.2927 36.8043 18.0636 36.8043Z" fill="#142034"/>
<path d="M24.8605 37.1097C23.4768 37.1097 21.2432 35.9862 18.5859 33.9158L18.769 33.6699C21.9357 36.1379 24.6237 37.2915 25.6144 36.6061C26.1687 36.2242 26.0611 35.3152 25.8743 34.6194L26.1661 34.5371C26.5527 35.9731 26.1725 36.5944 25.7847 36.8625C25.544 37.0286 25.233 37.1097 24.8605 37.1097Z" fill="#142034"/>
<path d="M20.0943 37.0632C19.782 37.0632 19.4697 37.0488 19.1599 37.0187C16.2505 36.7415 13.6994 35.1759 11.9766 32.6098L12.2262 32.4346C13.8978 34.9235 16.3708 36.4419 19.1894 36.7101C22.5199 37.0279 26.0361 35.5735 28.838 32.721L29.0518 32.9394C26.4444 35.5931 23.2265 37.0632 20.0943 37.0632Z" fill="#142034"/>
<path d="M22.5178 37.2987C22.4614 37.2987 22.4051 37.2987 22.3488 37.2974C18.4499 37.2503 14.7738 35.5919 12 32.6282L12.2189 32.415C14.9363 35.3172 18.5357 36.9416 22.3539 36.9887C22.409 36.9887 22.464 36.99 22.5203 36.99C26.0723 36.99 29.3965 35.5945 31.8976 33.0481L32.1114 33.2665C29.5501 35.8718 26.1504 37.2987 22.5178 37.2987Z" fill="#142034"/>
<path d="M20.8801 35.5557C17.675 35.5557 14.5288 34.6022 12.0149 32.643L11.9739 32.6116L11.9611 32.5619C10.8718 28.5205 14.4456 20.6928 19.9291 15.1121L20.0225 15.0166L20.1275 15.099C25.9157 19.6112 31.5054 26.5522 32.5896 30.5726L32.6126 30.6589L32.5499 30.723C29.4241 33.9038 25.1003 35.5557 20.8801 35.5557ZM12.2389 32.4298C17.9259 36.8269 26.8821 35.9912 32.2734 30.5687C31.1547 26.615 25.7121 19.8728 20.0494 15.4273C14.7105 20.9073 11.2251 28.4931 12.2389 32.4298Z" fill="#142034"/>
<path d="M18.5752 35.3025C18.0389 33.3145 15.2549 29.8669 12.3672 27.616L12.5502 27.3701C15.4827 29.6563 18.3153 33.1771 18.867 35.2201L18.5752 35.3025Z" fill="#142034"/>
<path d="M25.8786 34.6177C24.957 31.1975 20.1749 25.2715 15.2188 21.408L15.4018 21.1621C20.4028 25.0609 25.2322 31.0589 26.1692 34.5353L25.8786 34.6177Z" fill="#142034"/>
<path d="M15.165 33.2266C14.0117 33.2266 12.9544 33.0448 12.0469 32.6629L12.1621 32.3778C16.5474 34.2219 24.5128 31.2425 29.9221 25.7363L30.1358 25.9547C25.7582 30.4107 19.7102 33.2266 15.165 33.2266Z" fill="#142034"/>
<path d="M12.1836 32.6522L12.0312 32.3854C14.0025 31.2122 20.0325 25.7505 25.4738 20.2129L25.6876 20.4313C20.2309 25.9859 14.174 31.4686 12.1836 32.6522Z" fill="#142034"/>
<path d="M12.352 32.9221L11.9949 32.6436C9.2826 30.5287 7.6698 27.5297 7.45476 24.2011C7.22308 20.611 8.60292 17.0862 11.3421 14.2651C10.9364 12.6773 11.3626 11.9868 11.7978 11.686C13.1034 10.7848 16.21 12.06 20.1063 15.0982L20.2445 15.2055L20.1216 15.3311C14.7085 20.8425 11.1693 28.5355 12.2317 32.4801L12.352 32.9221ZM12.8653 11.7291C12.3444 11.7291 12.073 11.8704 11.968 11.9423C11.314 12.3935 11.4381 13.4568 11.657 14.2704L11.68 14.3567L11.6173 14.4208C8.89988 17.1883 7.52772 20.6542 7.75556 24.1802C7.95524 27.2799 9.40292 30.0866 11.8439 32.1283C11.1079 28.0136 14.5613 20.6149 19.785 15.2369C16.0026 12.3111 13.9213 11.7291 12.8653 11.7291Z" fill="#142034"/>
<path d="M12.3734 27.6162C10.1514 25.8846 8.86881 25.6099 8.44513 25.9016C8.15201 26.1043 8.21473 26.6065 8.31841 26.9924L8.02657 27.0748C7.78977 26.1985 8.03169 25.814 8.27489 25.6452C8.96353 25.1705 10.5635 25.8153 12.5565 27.3703L12.3734 27.6162Z" fill="#142034"/>
<path d="M15.2148 21.4098C12.048 18.9418 9.3626 17.7883 8.36932 18.4736C7.81508 18.8555 7.9226 19.7645 8.10948 20.4603L7.81764 20.5427C7.43108 19.1066 7.81124 18.4854 8.20036 18.2173C9.33572 17.4338 12.0276 18.5351 15.3991 21.1639L15.2148 21.4098Z" fill="#142034"/>
<path d="M11.9695 32.6088C8.09115 26.8345 9.40827 17.5838 14.9046 11.9873L15.1183 12.2057C9.71931 17.7015 8.41883 26.7756 12.2191 32.4335L11.9695 32.6088Z" fill="#142034"/>
<path d="M11.9797 32.6292C6.40147 26.6731 6.34387 17.2667 11.8492 11.6611L12.0629 11.8795C6.67283 17.3661 6.73299 26.5789 12.1986 32.4147L11.9797 32.6292Z" fill="#142034"/>
<path d="M23.9338 29.9094L23.8289 29.827C18.0407 25.3148 12.451 18.3739 11.3668 14.3534L11.3438 14.2671L11.4065 14.203C16.9053 8.60524 26.1175 7.74334 31.9402 12.283L31.9812 12.3144L31.994 12.3641C33.0833 16.4055 29.5095 24.2332 24.0273 29.8126L23.9338 29.9094ZM11.6817 14.3586C12.8004 18.3124 18.2429 25.0545 23.9069 29.5001C29.2445 24.02 32.73 16.4343 31.7149 12.4975C26.0279 8.1004 17.073 8.93614 11.6817 14.3586Z" fill="#142034"/>
<path d="M28.5486 23.7622C23.5477 19.8634 18.7182 13.8654 17.7812 10.389L18.0731 10.3066C18.9947 13.7268 23.7768 19.6528 28.7329 23.515L28.5486 23.7622Z" fill="#142034"/>
<path d="M31.3871 17.5554C28.4546 15.2692 25.6207 11.7471 25.0703 9.70544L25.3622 9.62305C25.8985 11.611 28.6825 15.0586 31.5702 17.3095L31.3871 17.5554Z" fill="#142034"/>
<path d="M14.0341 19.19L13.8203 18.9716C19.3077 13.3856 27.4216 10.3774 31.908 12.2647L31.7928 12.5511C27.4088 10.7057 19.4421 13.6838 14.0341 19.19Z" fill="#142034"/>
<path d="M18.4794 24.7115L18.2656 24.493C23.721 18.9397 29.7779 13.4571 31.7683 12.2734L31.9207 12.5402C29.9482 13.7134 23.9194 19.1725 18.4794 24.7115Z" fill="#142034"/>
<path d="M31.0835 33.5223C29.4886 33.5223 26.9068 32.2222 23.8336 29.8275L23.6953 29.7202L23.8182 29.5947C29.2313 24.0845 32.7705 16.3915 31.7068 12.4469L31.5878 12.0049L31.9449 12.2835C34.6572 14.3983 36.27 17.3973 36.4851 20.7259C36.7167 24.316 35.3369 27.8408 32.5977 30.6606C33.0035 32.2484 32.5772 32.9389 32.142 33.2398C31.8668 33.4294 31.511 33.5223 31.0835 33.5223ZM24.1561 29.6875C29.8073 34.0559 31.6582 33.1992 31.9743 32.9821C32.6284 32.5309 32.5043 31.4676 32.2854 30.6541L32.2623 30.5677L32.3251 30.5037C35.0425 27.7375 36.4134 24.2716 36.1855 20.7455C35.9859 17.6458 34.5382 14.8391 32.0972 12.7975C32.8332 16.9134 29.3798 24.3108 24.1561 29.6875Z" fill="#142034"/>
<path d="M34.8293 26.9563C33.4456 26.9563 31.212 25.8329 28.5547 23.7625L28.7377 23.5166C31.9044 25.9846 34.5912 27.1381 35.5832 26.4528C36.1374 26.0709 36.0299 25.1619 35.843 24.4661L36.1349 24.3837C36.5214 25.8198 36.1413 26.441 35.7534 26.7092C35.5128 26.8739 35.2017 26.9563 34.8293 26.9563Z" fill="#142034"/>
<path d="M35.1183 19.4352C34.2888 19.4352 32.9679 18.776 31.4062 17.5584L31.5893 17.3125C33.8114 19.0441 35.0939 19.3188 35.5176 19.0271C35.8107 18.8244 35.748 18.3222 35.6443 17.9364L35.9362 17.854C36.173 18.7302 35.9311 19.1148 35.6879 19.2835C35.5381 19.3842 35.3474 19.4352 35.1183 19.4352Z" fill="#142034"/>
<path d="M29.0341 32.9385L28.8203 32.7201C34.2194 27.2244 35.5198 18.1502 31.7195 12.4936L31.9691 12.3184C35.8475 18.0927 34.5317 27.3421 29.0341 32.9385Z" fill="#142034"/>
<path d="M32.0929 33.2652L31.8791 33.0468C37.2679 27.5602 37.2078 18.3488 31.7422 12.513L31.9611 12.2998C37.5393 18.2559 37.5982 27.6609 32.0929 33.2652Z" fill="#142034"/>
<path d="M32.3575 30.9103L32.2884 30.6553C31.2196 26.6898 25.6772 19.822 19.9351 15.3451L19.7969 15.2379L19.9198 15.1123C23.6356 11.3299 27.4423 9.38509 29.8538 10.039C30.9137 10.3268 31.6522 11.1128 31.9902 12.3148C34.6794 14.4283 36.2769 17.4129 36.4906 20.7258C36.7236 24.3421 35.322 27.893 32.5418 30.7233L32.3575 30.9103ZM20.2564 15.2065C25.8743 19.6259 31.2746 26.2974 32.5073 30.3191C35.1057 27.5844 36.4113 24.1943 36.1886 20.7467C35.9786 17.5071 34.4094 14.5892 31.7662 12.5293L31.7252 12.4979L31.7124 12.4482C31.4065 11.3142 30.755 10.604 29.777 10.3399C27.4935 9.71861 23.857 11.5823 20.2564 15.2065Z" fill="#142034"/>
<path d="M35.8395 24.4653C34.9179 21.0452 30.1358 15.1191 25.1797 11.2556L25.3627 11.0098C30.3637 14.9086 35.1931 20.9066 36.1301 24.3829L35.8395 24.4653Z" fill="#142034"/>
<path d="M35.6455 17.9323C35.1092 15.9444 32.3239 12.4968 29.4375 10.2459L29.6205 10C32.553 12.2862 35.3869 15.807 35.9373 17.8499L35.6455 17.9323Z" fill="#142034"/>
<path d="M30.1356 25.955L29.9219 25.7366C33.319 22.2785 35.0214 18.5419 34.4761 15.7417C34.1894 14.2664 33.2665 13.1625 31.8073 12.5491L31.9225 12.2627C33.479 12.9179 34.4646 14.099 34.7731 15.6815C35.3388 18.5824 33.6044 22.4237 30.1356 25.955Z" fill="#142034"/>
<path d="M25.6825 20.4331L25.4688 20.2147C30.3072 15.2892 32.1836 12.8735 32.3372 12.3438C32.2732 12.3621 32.1529 12.4118 31.9392 12.5387L31.7868 12.2719C32.1209 12.0731 32.4499 11.9174 32.6009 12.1175C32.7046 12.2562 32.8787 12.4864 30.9203 14.7948C29.6672 16.2714 27.856 18.2214 25.6825 20.4331Z" fill="#142034"/>
<path d="M20.0302 15.4255L19.9252 15.3431C17.5137 13.4624 15.7818 12.522 14.5607 12.0799C13.5022 12.7312 12.5114 13.5121 11.6193 14.4197L11.435 14.6068L11.3658 14.3517C10.9217 12.7025 11.3556 11.991 11.7985 11.6862C12.3809 11.2847 13.3204 11.3148 14.5274 11.7412C18.5121 9.34251 23.4158 8.73042 27.65 10.054C28.4615 9.87482 29.2014 9.86436 29.8426 10.0383C30.9178 10.33 31.6615 11.1343 31.993 12.3637L32.1121 12.8058L31.755 12.5272C30.5134 11.5594 29.113 10.8414 27.6282 10.3692C25.4714 10.8714 22.7822 12.6227 20.1223 15.33L20.0302 15.4255ZM14.8961 11.8798C16.313 12.4474 18.0577 13.5094 20.0033 15.0161C22.4711 12.5246 24.9748 10.8466 27.0766 10.2057C23.1137 9.11756 18.617 9.71657 14.8961 11.8798ZM12.866 11.7281C12.345 11.7281 12.0737 11.8694 11.9687 11.9413C11.3825 12.3454 11.4222 13.2439 11.595 14.0117C12.3911 13.2282 13.2615 12.5429 14.1844 11.9544C13.6302 11.7856 13.1975 11.7281 12.866 11.7281ZM28.2542 10.2567C29.4241 10.6805 30.5351 11.2573 31.5527 11.991C31.2071 11.1199 30.6081 10.5641 29.7671 10.3365C29.3127 10.2136 28.8046 10.1887 28.2542 10.2567Z" fill="#142034"/>
<path d="M25.1835 11.2565C22.0168 8.78852 19.3288 7.63497 18.3381 8.3203C17.7839 8.7022 17.8914 9.61118 18.0783 10.307L17.7864 10.3894C17.3999 8.95332 17.78 8.33207 18.1679 8.06395C19.3032 7.28053 21.9951 8.38177 25.3666 11.0106L25.1835 11.2565Z" fill="#142034"/>
<path d="M29.4281 10.2443C27.2061 8.51264 25.9222 8.23798 25.4998 8.53095C25.2067 8.73367 25.2694 9.2359 25.3731 9.62173L25.0813 9.70412C24.8445 8.82784 25.0864 8.44332 25.3296 8.2746C26.0169 7.80115 27.6169 8.44463 29.6112 9.99971L29.4281 10.2443Z" fill="#142034"/>
<path d="M31.7228 12.4919C30.0511 10.003 27.5781 8.48457 24.7596 8.21646C21.4277 7.89995 17.9128 9.35301 15.1122 12.2055L14.8984 11.9871C17.7644 9.07051 21.3688 7.58475 24.7877 7.9091C27.6972 8.18637 30.2482 9.75192 31.9724 12.318L31.7228 12.4919Z" fill="#142034"/>
<path d="M31.7506 12.5116C29.0319 9.60938 25.4338 7.98498 21.6155 7.9379C17.9944 7.89605 14.6127 9.29287 12.0731 11.8786L11.8594 11.6601C14.4168 9.05614 17.8165 7.62793 21.4491 7.62793C21.5055 7.62793 21.5618 7.62793 21.6181 7.62924C25.517 7.67632 29.1931 9.33472 31.9682 12.2984L31.7506 12.5116Z" fill="#142034"/>
<path d="M21.9225 37.4575C21.6601 37.4575 21.3836 37.4457 21.175 37.43C20.8243 37.4052 20.334 37.3529 19.6774 37.2692C19.2908 37.2195 18.8096 37.1109 18.5152 37.0338C18.0313 36.9056 17.3836 36.7055 16.9024 36.5341C16.4864 36.3864 15.5801 36.0005 14.7942 35.5401C14.4307 35.3283 13.4656 34.7633 12.4761 33.8974C11.9782 33.4619 11.223 32.7609 10.4141 31.7054C10.1465 31.3575 9.94046 31.0528 9.93918 31.0502C9.73182 30.7428 9.73182 30.7428 9.41566 30.2288C9.17118 29.8312 8.9139 29.3094 8.80382 29.087C8.63998 28.7535 8.46718 28.3585 8.36222 28.076C8.28414 27.8668 8.2035 27.6327 8.12542 27.3999C8.01278 27.0912 7.91294 26.776 7.82718 26.4569C7.7107 25.9939 7.55838 25.3831 7.49566 24.9162C7.43678 24.482 7.3715 23.9863 7.34078 23.6044C7.32798 23.4527 7.2883 22.9243 7.29854 22.511L7.29982 22.4456C7.30878 22.065 7.3203 21.5915 7.34718 21.2266C7.3715 20.9075 7.4227 20.4681 7.47774 20.1084C7.68638 18.7639 8.02302 17.7921 8.0371 17.7516C8.13694 17.4678 8.32126 16.9381 8.47614 16.564C8.58878 16.292 8.77182 15.897 8.96638 15.5086C9.25438 14.9318 9.69726 14.2033 10.0672 13.6932C10.5408 13.0419 11.1462 12.316 11.6109 11.8465C12.3149 11.135 12.5901 10.9218 13.5065 10.2155C13.8252 9.96966 14.2758 9.69239 14.5856 9.50667C14.8684 9.33665 15.2678 9.11954 15.6019 8.95474C15.9244 8.79518 16.384 8.59377 16.7718 8.44205C16.992 8.35573 17.2582 8.2681 17.5168 8.1844C17.6294 8.14778 17.7382 8.11246 17.8355 8.07846C18.1977 7.95552 18.6764 7.85089 19.0963 7.76326C19.3241 7.71617 19.598 7.67432 19.863 7.63509C19.9756 7.61808 20.0832 7.60239 20.1817 7.58669C20.5849 7.5213 21.1174 7.49645 21.5372 7.48337C21.8969 7.47029 22.318 7.47422 22.6086 7.49122C23.0284 7.51607 23.6134 7.57231 24.0959 7.63509C24.7807 7.72402 25.3926 7.88882 26.039 8.06407C26.5215 8.19486 27.1615 8.42505 27.6313 8.63562C28.0665 8.8318 28.3916 8.98483 28.6233 9.10646C28.9164 9.25948 29.3081 9.48313 29.5974 9.66362C29.8982 9.85064 30.2425 10.0808 30.4742 10.2509C30.8198 10.5059 30.9362 10.5909 31.4546 11.0291C31.511 11.0774 31.8066 11.3325 32.1945 11.7157C32.4902 12.0087 32.7372 12.2846 32.8562 12.4167C32.9996 12.5776 33.3196 12.9569 33.5206 13.2237C33.8457 13.6527 33.9033 13.7416 34.2271 14.2281C34.4703 14.5957 34.9004 15.349 35.1334 15.8499C35.3125 16.2344 35.6121 16.8792 35.8566 17.643C36.1228 18.4722 36.3058 19.202 36.4018 19.8115C36.4991 20.4288 36.6092 21.1259 36.6297 22.1265C36.6527 23.2238 36.5567 24.0896 36.4978 24.5081C36.4377 24.9358 36.3263 25.7336 35.9948 26.8545C35.7951 27.5307 35.4342 28.3991 35.1666 29.0086C35.0438 29.2885 34.8466 29.6612 34.5638 30.1477C34.4409 30.3609 34.2783 30.6068 34.1222 30.8435C34.0543 30.9482 33.9878 31.0476 33.9289 31.1404C33.7087 31.4844 33.3734 31.9042 33.1327 32.1828L33.0892 32.2338C32.7999 32.5686 32.4415 32.9845 32.1279 33.2723C32.0575 33.3377 31.9807 33.4083 31.9014 33.4828C31.6863 33.683 31.4431 33.9092 31.2383 34.0792C30.9554 34.3147 30.5382 34.6521 30.1977 34.8731L29.9634 35.0261C29.7202 35.1857 29.4438 35.3662 29.2159 35.4983C28.8639 35.701 28.4031 35.9417 28.0703 36.0973C26.894 36.6466 25.879 36.9134 25.7676 36.9422C25.0751 37.1188 24.1689 37.277 23.6019 37.3581C23.2934 37.4026 22.9068 37.4183 22.5651 37.4327C22.4524 37.4379 22.3449 37.4418 22.2451 37.447C22.1465 37.4549 22.0351 37.4575 21.9225 37.4575ZM10.3488 31.1025C10.4294 31.215 10.5344 31.3601 10.6521 31.5132C11.4457 32.5477 12.1856 33.2343 12.6733 33.662C13.6409 34.5095 14.5881 35.0628 14.944 35.2707C15.7132 35.7206 16.5952 36.0973 17.0022 36.2412C17.4758 36.4086 18.1145 36.6061 18.592 36.7329C18.9683 36.8323 19.4086 36.9226 19.7158 36.9618C20.366 37.0455 20.8511 37.0978 21.1967 37.1214C21.486 37.1423 21.9097 37.158 22.2323 37.141C22.3334 37.1358 22.4422 37.1305 22.5548 37.1266C22.8889 37.1122 23.2691 37.0965 23.5622 37.0547C24.1215 36.9749 25.0163 36.8193 25.6972 36.6453C25.806 36.6178 26.7967 36.3576 27.9487 35.8187C28.2751 35.6657 28.727 35.4303 29.0713 35.2315C29.2927 35.1046 29.5641 34.9254 29.8047 34.7685L30.0402 34.6142C30.3679 34.4023 30.775 34.0714 31.0527 33.8425C31.2511 33.679 31.4905 33.4554 31.703 33.2579C31.7836 33.1833 31.8604 33.1114 31.9321 33.046C32.2329 32.77 32.5862 32.362 32.869 32.0324L32.9126 31.9814C33.1455 31.7107 33.4706 31.3039 33.6818 30.973C33.7407 30.8801 33.8086 30.7781 33.8777 30.6735C34.0313 30.4394 34.19 30.1974 34.309 29.9921C34.5855 29.516 34.7775 29.1537 34.8953 28.8843C35.159 28.2827 35.5135 27.4273 35.7093 26.7668C36.0345 25.6682 36.1446 24.8861 36.2034 24.4663C36.261 24.0569 36.3545 23.2094 36.3314 22.1343C36.3109 21.156 36.2034 20.4694 36.1074 19.8638C36.014 19.2687 35.8335 18.5559 35.5724 17.7411C35.333 16.9969 35.0386 16.3626 34.8633 15.9846C34.6354 15.4955 34.2169 14.7618 33.9826 14.4086C33.6601 13.9234 33.6038 13.8371 33.2838 13.4146C33.0866 13.1544 32.7756 12.7842 32.6361 12.6273C32.5196 12.4965 32.2764 12.2258 31.9871 11.938C31.607 11.5614 31.319 11.3142 31.2652 11.2684C30.7545 10.8368 30.6393 10.7518 30.3001 10.502C30.0748 10.3359 29.7382 10.1109 29.4438 9.92781C29.1609 9.75125 28.7769 9.53283 28.4889 9.38242C28.2623 9.2634 27.9436 9.113 27.5135 8.91943C27.0566 8.71409 26.4345 8.49044 25.9647 8.36358C25.3286 8.19094 24.727 8.02876 24.0614 7.94244C23.5839 7.88097 23.0092 7.82473 22.5945 7.79988C22.3116 7.78288 21.902 7.78026 21.5513 7.79203C21.1404 7.80642 20.6195 7.82996 20.2329 7.89274C20.1344 7.90843 20.0243 7.92544 19.9116 7.94244C19.6505 7.98168 19.3804 8.02222 19.1616 8.068C18.8646 8.13077 18.3116 8.24587 17.9353 8.37404C17.8355 8.40805 17.7267 8.44336 17.6128 8.48129C17.358 8.56499 17.0944 8.65001 16.8832 8.73371C16.503 8.88281 16.0524 9.0803 15.7363 9.23594C15.4137 9.3955 15.0131 9.6113 14.7417 9.77479C14.4371 9.95789 13.998 10.2286 13.6921 10.464C12.7885 11.1611 12.5158 11.3717 11.8272 12.0675C11.3728 12.5279 10.7776 13.2381 10.3129 13.8789C9.95198 14.3759 9.52062 15.0887 9.23902 15.6511C9.04702 16.0343 8.86782 16.4215 8.75774 16.687C8.6067 17.0532 8.42366 17.5763 8.3251 17.8575C8.31102 17.8968 7.98462 18.8424 7.77982 20.1581C7.72606 20.5047 7.67486 20.9441 7.65182 21.2515C7.62494 21.6085 7.6147 22.0781 7.60574 22.4547L7.60446 22.5201C7.59806 22.7883 7.61342 23.1845 7.64542 23.5795C7.6787 23.9837 7.75422 24.5421 7.79902 24.8743C7.85918 25.3242 8.00894 25.9246 8.11902 26.364C8.1203 26.3706 8.12158 26.3758 8.12414 26.3823C8.1971 26.6243 8.29822 26.9473 8.40574 27.273C9.12382 29.2492 10.3923 30.9861 12.1139 32.3476C12.1369 32.3659 12.1587 32.3829 12.1817 32.4012L11.9987 32.6471C11.3933 32.1736 10.8429 31.6583 10.3488 31.1025Z" fill="#142034"/>
</svg>
